<?xml version="1.0" standalone="no"?>
<!DOCTYPE svg PUBLIC "-//W3C//DTD SVG 20010904//EN"
 "http://www.w3.org/TR/2001/REC-SVG-20010904/DTD/svg10.dtd">
<svg version="1.0" xmlns="http://www.w3.org/2000/svg"
 width="277.000000pt" height="256.000000pt" viewBox="0 0 277.000000 256.000000"
 preserveAspectRatio="xMidYMid meet">

<g transform="translate(0.000000,256.000000) scale(0.100000,-0.100000)"
fill="#000000" stroke="none">
<path d="M1237 2400 c-215 -38 -426 -159 -569 -324 -107 -123 -148 -200 -209
-390 -30 -93 -42 -237 -30 -358 10 -100 52 -263 73 -283 12 -11 12 -11 -29
115 -25 79 -27 98 -27 260 -1 206 13 269 94 435 172 353 534 564 929 542 624
-36 1056 -649 877 -1245 -13 -42 -26 -85 -31 -95 -4 -9 -3 -17 3 -17 13 0 58
145 73 234 16 96 6 301 -20 396 -94 349 -358 617 -700 711 -85 24 -346 35
-434 19z"/>
<path d="M1252 2105 c-194 -42 -371 -183 -462 -370 -55 -111 -73 -189 -74
-315 0 -116 22 -207 74 -310 46 -90 50 -93 98 -85 35 6 42 11 42 30 0 21 17
35 40 35 5 0 18 -9 29 -21 12 -13 21 -17 26 -10 8 15 38 14 53 -1 15 -15 187
-11 214 5 13 9 23 9 36 0 16 -10 18 -8 15 10 -5 31 10 50 42 50 32 0 47 -19
42 -50 -3 -16 1 -23 13 -23 13 0 16 7 12 29 -5 34 9 45 45 36 21 -5 24 -10 21
-36 l-5 -30 96 0 c53 1 111 -1 129 -3 20 -2 32 2 32 9 0 20 28 37 50 30 13 -4
20 -15 20 -31 0 -15 6 -24 15 -24 8 0 15 7 15 16 0 10 7 14 18 12 9 -2 16 -9
15 -16 -4 -16 64 -27 81 -13 26 22 86 157 107 241 28 112 23 248 -15 365 -73
229 -261 406 -492 465 -91 24 -236 26 -332 5z m-129 -279 c8 -9 24 -12 36 -9
15 4 21 1 21 -12 0 -13 -6 -16 -21 -12 -12 3 -22 0 -26 -8 -2 -8 -14 -17 -24
-20 -41 -13 -68 43 -31 64 23 14 28 13 45 -3z m157 -26 c0 -25 -30 -41 -53
-29 -39 22 -4 79 35 58 10 -5 18 -18 18 -29z m-312 1 c-2 -9 -13 -17 -26 -19
-16 -3 -22 2 -22 16 0 11 6 22 13 25 20 7 38 -4 35 -22z m82 15 c0 -8 -4 -17
-9 -21 -12 -7 -24 12 -16 25 9 15 25 12 25 -4z m550 -6 c0 -13 -7 -20 -20 -20
-13 0 -20 7 -20 20 0 13 7 20 20 20 13 0 20 -7 20 -20z m40 4 c0 -9 -5 -14
-12 -12 -18 6 -21 28 -4 28 9 0 16 -7 16 -16z m128 7 c23 -14 10 -46 -18 -46
-16 0 -26 6 -28 19 -3 16 12 36 28 36 3 0 11 -4 18 -9z m-68 -16 c6 -8 10 -22
8 -32 -4 -24 -47 -24 -62 0 -9 15 -7 21 8 33 25 18 31 18 46 -1z m197 -1 c3
-8 -2 -23 -11 -32 -15 -15 -17 -15 -32 0 -21 21 -11 48 16 48 11 0 23 -7 27
-16z m-870 -30 c6 -17 -6 -45 -23 -51 -21 -7 -47 23 -40 45 9 27 53 30 63 6z
m791 4 c-6 -18 -28 -21 -28 -4 0 9 7 16 16 16 9 0 14 -5 12 -12z m-627 -8 c25
-14 25 -56 -1 -70 -45 -24 -86 44 -42 69 21 13 20 13 43 1z m-251 -15 c0 -8
-7 -15 -15 -15 -8 0 -15 7 -15 15 0 8 7 15 15 15 8 0 15 -7 15 -15z m688 -17
c2 -19 -2 -28 -18 -33 -23 -7 -50 10 -50 32 0 8 -4 11 -10 8 -5 -3 -15 -3 -20
0 -20 13 0 22 47 21 44 -1 48 -3 51 -28z m-378 1 c0 -5 -7 -9 -15 -9 -15 0
-20 12 -9 23 8 8 24 -1 24 -14z m510 6 c15 -17 5 -35 -20 -35 -22 0 -33 23
-17 39 15 15 22 14 37 -4z m108 -16 c4 -31 -19 -44 -49 -29 -22 12 -24 31 -7
48 21 21 53 10 56 -19z m-902 0 c10 -17 -13 -36 -27 -22 -12 12 -4 33 11 33 5
0 12 -5 16 -11z m132 2 c8 -4 12 -19 10 -32 -2 -19 -9 -24 -33 -24 -21 0 -31
5 -33 18 -8 40 22 60 56 38z m606 -17 c9 -8 16 -19 16 -24 0 -9 -28 -40 -36
-40 -17 0 -44 23 -44 38 0 38 37 53 64 26z m-434 -9 c20 -25 8 -50 -25 -50
-24 0 -31 5 -33 24 -6 37 34 55 58 26z m-243 -11 c9 -23 -13 -40 -32 -24 -12
10 -13 16 -4 26 15 18 28 18 36 -2z m-87 -9 c0 -8 -7 -15 -15 -15 -8 0 -15 7
-15 15 0 8 7 15 15 15 8 0 15 -7 15 -15z m380 0 c0 -8 -7 -15 -15 -15 -8 0
-15 7 -15 15 0 8 7 15 15 15 8 0 15 -7 15 -15z m475 -10 c0 -22 -31 -33 -47
-17 -17 17 -1 44 24 40 15 -2 23 -10 23 -23z m-625 -25 c0 -25 -30 -41 -53
-29 -39 22 -4 79 35 58 10 -5 18 -18 18 -29z m443 18 c8 -12 7 -21 -2 -32 -19
-23 -58 -20 -66 4 -14 43 44 67 68 28z m277 -22 c0 -40 -52 -50 -71 -14 -10
18 -8 24 11 40 28 22 60 8 60 -26z m-890 5 c0 -11 39 -9 58 3 7 4 17 4 22 1
15 -9 1 -27 -16 -21 -7 3 -16 1 -20 -5 -3 -6 -12 -8 -19 -6 -6 3 -19 -3 -28
-14 -20 -23 -27 -23 -51 -6 -28 21 -13 57 25 57 16 0 29 -4 29 -9z m210 -12
c0 -5 -7 -9 -15 -9 -15 0 -20 12 -9 23 8 8 24 -1 24 -14z m473 -11 c15 -23 1
-48 -28 -48 -14 0 -25 2 -25 4 0 2 -3 11 -6 19 -6 16 23 50 39 44 6 -2 15 -10
20 -19z m75 13 c8 -4 12 -19 10 -32 -4 -29 -45 -34 -61 -7 -19 30 19 60 51 39z
m-444 -27 c32 -31 6 -71 -39 -60 -30 8 -35 49 -7 65 23 14 28 14 46 -5z m234
-11 c4 -30 -31 -49 -52 -27 -18 18 -18 17 -10 39 10 25 58 16 62 -12z m-454
-5 c15 -24 -13 -53 -43 -43 -21 6 -29 43 -14 59 12 12 45 2 57 -16z m726 7 c0
-8 -7 -15 -15 -15 -8 0 -15 7 -15 15 0 8 7 15 15 15 8 0 15 -7 15 -15z m-596
-8 c36 -26 -4 -84 -41 -61 -24 15 -27 38 -8 58 20 19 26 20 49 3z m-279 -17
c0 -22 -29 -18 -33 3 -3 14 1 18 15 15 10 -2 18 -10 18 -18z m210 11 c7 -12
-12 -24 -25 -16 -11 7 -4 25 10 25 5 0 11 -4 15 -9z m475 -24 c0 -24 -18 -39
-41 -35 -29 4 -38 37 -14 54 20 15 55 2 55 -19z m268 -10 c4 -20 -25 -34 -40
-19 -15 15 -1 44 19 40 10 -2 19 -11 21 -21z m-178 -3 c0 -9 -7 -14 -17 -12
-25 5 -28 28 -4 28 12 0 21 -6 21 -16z m124 -16 c8 -14 7 -21 -6 -34 -22 -22
-58 -10 -58 21 0 37 43 46 64 13z m-845 -7 c16 -28 -9 -56 -42 -47 -20 5 -27
13 -27 30 0 12 3 26 7 29 13 14 53 6 62 -12z m41 -2 c0 -5 -7 -9 -15 -9 -15 0
-20 12 -9 23 8 8 24 -1 24 -14z m318 9 c-3 -7 -11 -13 -18 -13 -7 0 -15 6 -17
13 -3 7 4 12 17 12 13 0 20 -5 18 -12z m-53 -7 c7 -12 -12 -24 -25 -16 -11 7
-4 25 10 25 5 0 11 -4 15 -9z m263 -39 c-2 -22 -9 -28 -34 -30 -34 -3 -49 16
-39 49 13 41 78 25 73 -19z m192 33 c20 -25 8 -50 -25 -50 -21 0 -31 5 -33 18
-4 21 14 47 33 47 7 0 18 -7 25 -15z m-651 -22 c12 -23 -4 -53 -29 -53 -25 0
-41 29 -29 52 12 23 45 23 58 1z m141 2 c0 -8 -4 -15 -9 -15 -13 0 -22 16 -14
24 11 11 23 6 23 -9z m378 -8 c4 -20 -25 -34 -40 -19 -15 15 -1 44 19 40 10
-2 19 -11 21 -21z m275 17 c9 -10 -4 -34 -18 -34 -17 0 -28 17 -20 30 7 11 28
13 38 4z m-555 -21 c5 -17 -26 -29 -40 -15 -6 6 -7 15 -3 22 9 14 37 9 43 -7z
m-108 -33 c0 -25 -30 -41 -53 -29 -39 22 -4 79 35 58 10 -5 18 -18 18 -29z
m235 10 c-5 -8 -11 -8 -17 -2 -6 6 -7 16 -3 22 5 8 11 8 17 2 6 -6 7 -16 3
-22z m390 -25 c0 -26 -3 -30 -29 -30 -36 0 -56 26 -36 50 8 9 24 15 39 13 22
-2 26 -8 26 -33z m-845 6 c0 -24 -25 -34 -40 -16 -15 18 -5 35 21 35 12 0 19
-7 19 -19z m754 -13 c15 -24 -13 -53 -43 -43 -23 7 -28 34 -9 53 16 16 38 12
52 -10z m-494 3 c0 -14 -18 -23 -30 -16 -6 4 -8 11 -5 16 8 12 35 12 35 0z
m224 -17 c12 -31 -18 -60 -49 -48 -8 4 -15 17 -15 30 0 39 50 53 64 18z m86 7
c7 -15 6 -23 -6 -35 -19 -20 -29 -20 -48 0 -19 19 -20 26 -4 42 18 18 46 14
58 -7z m108 -4 c4 -20 -25 -34 -40 -19 -15 15 -1 44 19 40 10 -2 19 -11 21
-21z m-734 7 c9 -3 16 -15 16 -26 0 -17 2 -18 21 -4 32 22 68 3 69 -36 0 -40
-73 -47 -85 -8 -4 13 -14 18 -32 17 -33 -3 -52 25 -34 47 15 18 22 19 45 10z
m121 -3 c7 -12 -12 -24 -25 -16 -11 7 -4 25 10 25 5 0 11 -4 15 -9z m273 -23
c2 -18 -1 -28 -10 -28 -7 0 -2 -9 11 -19 26 -20 25 -48 -1 -65 -37 -23 -74 27
-43 58 14 14 15 17 2 22 -39 14 -28 67 12 62 20 -2 27 -9 29 -30z m-210 -26
c-4 -22 -46 -28 -54 -8 -4 9 -1 23 6 31 16 19 53 1 48 -23z m106 22 c9 -8 16
-19 16 -24 0 -13 -30 -40 -44 -40 -31 0 -47 45 -24 68 16 16 33 15 52 -4z
m646 1 c15 -17 5 -35 -20 -35 -22 0 -33 23 -17 39 15 15 22 14 37 -4z m-95
-26 c0 -7 -8 -15 -17 -17 -18 -3 -25 18 -11 32 10 10 28 1 28 -15z m-500 -8
c7 -12 -12 -24 -25 -16 -11 7 -4 25 10 25 5 0 11 -4 15 -9z m285 -12 c0 -5 -7
-9 -15 -9 -15 0 -20 12 -9 23 8 8 24 -1 24 -14z m-89 -12 c-13 -13 -26 -3 -16
12 3 6 11 8 17 5 6 -4 6 -10 -1 -17z m-541 -2 c10 -12 10 -18 0 -30 -25 -30
-61 -7 -46 30 3 8 12 15 19 15 8 0 20 -7 27 -15z m784 -7 c15 -24 -13 -53 -43
-43 -21 6 -29 43 -14 59 12 12 45 2 57 -16z m131 -8 c0 -20 -6 -26 -26 -28
-28 -3 -43 16 -32 44 3 9 15 14 32 12 20 -2 26 -8 26 -28z m-761 4 c9 -8 16
-19 16 -24 0 -9 -28 -40 -36 -40 -3 0 -14 5 -25 10 -16 9 -19 7 -19 -9 0 -19
-26 -41 -49 -41 -14 0 -41 29 -41 45 0 8 11 22 24 30 19 13 29 14 45 5 17 -9
21 -8 21 4 0 14 25 35 42 36 4 0 14 -7 22 -16z m347 6 c23 -13 25 -52 4 -70
-12 -10 -21 -10 -40 -2 -30 14 -34 56 -7 71 21 13 20 13 43 1z m103 -3 c36
-26 -4 -84 -41 -61 -24 15 -27 38 -8 58 20 19 26 20 49 3z m-284 -26 c11 -21
-9 -51 -34 -51 -21 0 -38 27 -31 50 8 26 51 27 65 1z m534 -8 c9 -22 -13 -45
-38 -41 -26 4 -33 38 -11 54 20 15 41 9 49 -13z m-108 -24 c10 -17 -13 -36
-27 -22 -12 12 -4 33 11 33 5 0 12 -5 16 -11z m169 -8 c7 -12 -12 -24 -25 -16
-11 7 -4 25 10 25 5 0 11 -4 15 -9z m-917 -24 c4 -20 -25 -34 -40 -19 -15 15
-1 44 19 40 10 -2 19 -11 21 -21z m400 0 c4 -20 -25 -34 -40 -19 -15 15 -1 44
19 40 10 -2 19 -11 21 -21z m52 8 c0 -8 -9 -15 -20 -15 -11 0 -20 7 -20 15 0
8 9 15 20 15 11 0 20 -7 20 -15z m-115 -21 c0 -10 -8 -20 -18 -22 -22 -4 -35
27 -16 39 20 12 34 5 34 -17z m549 10 c9 -8 16 -19 16 -24 0 -5 -7 -16 -16
-24 -8 -9 -19 -16 -24 -16 -5 0 -16 7 -24 16 -9 8 -16 19 -16 24 0 5 7 16 16
24 8 9 19 16 24 16 5 0 16 -7 24 -16z m-730 0 c24 -9 20 -51 -4 -59 -37 -12
-64 27 -38 53 14 14 20 14 42 6z m356 -14 c0 -13 -7 -20 -20 -20 -13 0 -20 7
-20 20 0 13 7 20 20 20 13 0 20 -7 20 -20z m78 -12 c2 -19 -2 -28 -18 -33 -37
-12 -64 27 -38 53 21 21 53 10 56 -20z m206 10 c8 -13 8 -23 0 -35 -15 -24
-56 -23 -69 2 -5 11 -16 20 -22 20 -25 0 -13 20 12 20 13 1 28 4 32 8 11 12
35 4 47 -15z m-756 -17 c8 -4 12 -19 10 -32 -2 -19 -9 -24 -33 -24 -33 0 -45
25 -25 50 14 17 29 19 48 6z m54 -33 c-15 -15 -26 -4 -18 18 5 13 9 15 18 6 9
-9 9 -15 0 -24z m362 26 c21 -8 21 -53 0 -61 -9 -3 -24 -1 -34 4 -13 9 -19 7
-29 -9 -18 -29 -55 -20 -59 14 -2 20 2 28 18 33 12 4 27 2 32 -3 7 -7 16 -4
29 9 21 21 21 21 43 13z m486 -14 c0 -13 -7 -20 -20 -20 -13 0 -20 7 -20 20 0
13 7 20 20 20 13 0 20 -7 20 -20z m-398 -22 c12 -33 -19 -51 -41 -25 -8 10 -7
17 1 25 16 16 35 15 40 0z m293 2 c9 -15 -14 -40 -31 -33 -22 8 -18 43 5 43
11 0 23 -5 26 -10z m-102 -12 c7 -21 -4 -38 -23 -38 -23 0 -34 16 -26 35 7 18
43 20 49 3z m181 -4 c24 -9 21 -61 -4 -69 -41 -13 -69 43 -32 64 21 13 17 12
36 5z m-927 -20 c7 -18 -17 -38 -31 -24 -11 11 -1 40 14 40 6 0 13 -7 17 -16z
m79 5 c4 -8 9 -8 17 0 16 16 37 13 37 -5 0 -9 -7 -14 -18 -12 -11 2 -27 -3
-36 -11 -20 -17 -42 -1 -33 23 7 18 23 21 33 5z m122 -40 c2 -18 -3 -29 -14
-33 -27 -11 -54 3 -54 28 0 30 9 38 40 34 19 -2 26 -10 28 -29z m620 19 c7 -7
12 -18 12 -25 0 -17 -35 -34 -54 -27 -16 6 -22 45 -9 57 10 11 38 8 51 -5z
m-73 -18 c3 -6 -1 -13 -10 -16 -19 -8 -30 0 -20 15 8 14 22 14 30 1z"/>
<path d="M1200 1028 c-189 -6 -544 -45 -680 -73 -36 -7 -67 -12 -69 -10 -2 3
8 20 23 40 15 19 23 35 18 35 -4 0 -71 -14 -148 -31 -76 -17 -149 -34 -161
-36 -22 -5 -22 -7 21 -68 24 -35 47 -72 50 -82 4 -11 -1 -57 -9 -102 -9 -46
-14 -85 -11 -88 2 -3 59 7 125 22 67 15 128 25 136 21 8 -3 15 -17 15 -31 0
-30 -9 -30 132 -6 275 47 399 56 763 56 234 0 389 -5 468 -14 114 -13 117 -14
101 -32 -9 -10 -67 -44 -128 -75 -61 -31 -98 -53 -81 -49 43 10 164 71 207
106 45 35 77 37 220 9 57 -11 106 -20 109 -20 4 0 9 14 13 30 7 38 23 39 162
4 57 -15 108 -24 111 -20 4 4 -1 45 -11 91 l-17 84 51 76 c29 42 50 78 48 80
-11 11 -318 78 -326 71 -2 -3 5 -17 17 -32 11 -15 21 -30 21 -34 0 -4 -32 -1
-71 7 -314 59 -713 85 -1099 71z m-2 -161 l3 -107 59 0 c47 0 60 -3 60 -15 0
-13 -13 -15 -72 -13 l-73 3 -7 100 c-8 109 -4 149 15 142 8 -2 13 -38 15 -110z
m302 84 c20 -23 30 -27 39 -18 8 8 14 8 24 -2 10 -10 8 -16 -10 -31 -14 -11
-23 -29 -23 -45 0 -71 -67 -133 -127 -119 -91 22 -118 153 -46 220 39 36 106
34 143 -5z m213 23 c44 -8 44 -27 1 -32 -16 -2 -32 -9 -36 -15 -4 -7 -8 -51
-8 -98 0 -62 -4 -90 -14 -98 -8 -7 -16 -8 -19 -4 -3 4 -2 56 2 116 l6 107 -37
0 c-36 0 -47 8 -31 23 8 9 86 9 136 1z m-629 -10 c9 -3 16 -13 16 -21 0 -12
-8 -13 -40 -8 -34 6 -43 3 -65 -19 -20 -20 -25 -35 -25 -76 0 -62 23 -90 75
-90 24 0 39 6 47 20 16 26 38 26 38 1 0 -49 -104 -69 -153 -30 -35 27 -51 87
-37 138 18 67 86 107 144 85z m736 -58 l0 -64 50 -4 c56 -3 60 1 60 62 0 38
11 56 28 46 9 -6 -11 -216 -22 -235 -15 -24 -28 2 -22 44 6 38 5 43 -16 49
-13 3 -38 6 -55 6 -28 0 -33 -4 -33 -22 0 -40 -12 -68 -27 -68 -13 0 -14 9
-10 48 4 26 9 76 12 112 8 78 11 90 25 90 6 0 10 -27 10 -64z m-900 37 c0 -31
-85 -243 -97 -243 -18 0 -15 26 6 80 l19 45 -52 47 c-35 32 -48 49 -41 57 7 7
25 -2 58 -30 l47 -40 10 25 c5 14 14 37 20 51 11 28 30 34 30 8z m1194 -13
c46 -17 31 -33 -24 -26 -54 7 -49 12 -64 -66 -2 -9 4 -18 15 -21 25 -7 24 -27
-1 -27 -16 0 -20 -7 -20 -34 0 -34 1 -35 43 -38 56 -4 49 -22 -10 -26 -75 -4
-78 1 -64 107 16 127 23 141 65 141 19 0 46 -4 60 -10z m-1403 -57 c15 -46 18
-182 4 -183 -5 0 -13 33 -18 74 -4 42 -12 88 -19 103 -11 28 -11 28 -26 -24
-18 -64 -40 -69 -71 -18 -11 19 -25 35 -31 35 -11 0 -8 -28 15 -133 12 -55 5
-81 -15 -61 -14 14 -43 180 -36 207 10 41 34 41 71 2 l32 -36 6 29 c14 71 65
74 88 5z m1585 16 c9 -10 14 -25 10 -35 -6 -15 -9 -15 -29 5 -36 33 -86 26
-72 -11 3 -7 19 -22 36 -33 82 -53 59 -170 -30 -150 -43 9 -66 40 -62 83 2 24
31 12 31 -13 0 -30 35 -48 63 -33 30 16 20 54 -23 88 -22 17 -43 43 -46 56
-15 60 77 93 122 43z"/>
<path d="M1395 941 c-8 -14 36 -41 67 -41 32 0 35 10 10 33 -20 18 -67 23 -77
8z"/>
<path d="M1356 903 c-3 -3 -6 -25 -6 -49 0 -63 28 -89 93 -85 19 1 57 56 57
84 0 13 -9 17 -44 17 -28 0 -52 7 -68 20 -14 10 -28 16 -32 13z"/>
<path d="M2292 1005 c-7 -15 -11 -30 -8 -32 7 -7 28 36 24 49 -2 6 -9 -2 -16
-17z"/>
<path d="M520 1010 c0 -8 5 -22 10 -30 9 -13 10 -13 10 0 0 8 -5 22 -10 30 -9
13 -10 13 -10 0z"/>
<path d="M850 610 c45 -36 203 -109 295 -136 82 -25 105 -28 265 -28 157 -1
183 1 248 22 41 13 72 25 70 27 -2 2 -39 -5 -83 -16 -242 -60 -509 -21 -727
106 -82 48 -110 58 -68 25z"/>
</g>
</svg>
