<svg id="e2rckSigpy11" xmlns="http://www.w3.org/2000/svg" xmlns:xlink="http://www.w3.org/1999/xlink" viewBox="0 0 1440 380" shape-rendering="geometricPrecision" text-rendering="geometricPrecision">
    <defs>
        <linearGradient id="e2rckSigpy12-fill" x1="0" y1="1" x2="0" y2="0" spreadMethod="pad" gradientUnits="objectBoundingBox" gradientTransform="translate(0 0)">
            <stop id="e2rckSigpy12-fill-0" offset="0%" stop-color="#ff696c"/>
            <stop id="e2rckSigpy12-fill-1" offset="100%" stop-color="#696cff"/>
        </linearGradient>
    </defs>
    <path d="M0,38l48,63.3c48,12.3,70.625555,108,166.625555,114s230.182422,0,361.374445-31.6C672,222,768,253,864,247s192-51,288-57s192,25,288,25.3c96-.3,277.11459,25.7,373.11459-19c96-44.3,159.758246-18.9,255.758246-12.6c96,6.7,300.425282,40.061992,396.425282,46.761992c96,6.3,186.646649-25.3,282.646649,0c96,25.7,107.294019-40.861992,203.294019-34.161992c96,6.3,172.546158,12.7,268.546158-6.3s140.215056,25.3,236.215056,57c96,31.3,192-6,288,0s192-25,288-31.7c96-6.3,192,12.7,288,38c96,25.7,192,37.7,288,0c96-38.3,192-88.3,288-82.3s192,38.3,288,44.3s192,13,288-44.3c96-56.7,192-13,288,0s192-70,288-38s192,44,288,38s192-32,288-63.3c96-31.7,192-65.975955,240-84.975955L6912,0v380h-48c-48,0-144,0-240,0s-192,0-288,0-192,0-288,0-192,0-288,0-192,0-288,0-192,0-288,0-192,0-288,0-192,0-288,0-192,0-288,0-192,0-288,0-192,0-288,0-192,0-288,0-192,0-288,0-192,0-288,0-192,0-288,0-192,0-288,0-192,0-288,0-192,0-288,0-192,0-288,0-192,0-288,0-192,0-288,0-192,0-288,0-192,0-288,0-192,0-240,0h-48L0,38Z" transform="matrix(.262014 0 0 1 0 0)" fill="url(#e2rckSigpy12-fill)"/>
</svg>
